<svg width="96" height="96" viewBox="0 0 96 96" fill="none" xmlns="http://www.w3.org/2000/svg">
<path d="M64 96H53.25V85.25H64V96ZM53.25 58.75H42.75V85.25H53.25V58.75ZM96 48H85.25V69.25H96V48ZM85.25 37.25H74.75V48H85.25V37.25ZM21.25 48H10.75V58.75H21.25V48ZM10.75 37.25H0V48H10.75V37.25ZM48 10.75H58.75V0H48V10.75ZM8 8V24H24V8H8ZM32 32H0V0H32V32ZM8 72V88H24V72H8ZM32 96H0V64H32V96ZM72 8V24H88V8H72ZM96 32H64V0H96V32ZM85.25 85.25V69.25H64V80H74.75V96H96V85.25H85.25ZM74.75 48H53.25V58.75H74.75V48ZM53.25 37.25H21.25V48H32V58.75H42.75V48H53.25V37.25ZM58.75 32V21.25H48V10.75H37.25V32H58.75ZM20 12H12V20H20V12ZM20 76H12V84H20V76ZM84 12H76V20H84V12Z" fill="#1E293B"/>
</svg>
