<svg width="76" height="22" viewBox="0 0 76 22" fill="none" xmlns="http://www.w3.org/2000/svg">
<path d="M34.9392 19.578L29.5348 5.96301H31.6438L36.2574 17.847L40.8182 5.96301H42.9536L37.4964 19.578H34.9392ZM48.8944 19.733C47.4357 19.733 46.223 19.4403 45.2563 18.8546C44.2897 18.2517 43.569 17.425 43.0945 16.3745C42.6199 15.3239 42.3827 14.1268 42.3827 12.7834C42.3827 11.44 42.6288 10.2516 43.1208 9.2182C43.6131 8.16765 44.3424 7.34094 45.309 6.73805C46.2758 6.11802 47.4621 5.808 48.868 5.808C49.9225 5.808 50.8277 5.99752 51.5834 6.37637C52.3568 6.75521 52.9895 7.27191 53.4815 7.92646C53.9879 8.57435 54.3637 9.31086 54.5888 10.0966C54.8341 10.8836 54.9585 11.7021 54.9579 12.5251C54.9404 12.6795 54.9316 12.8347 54.9315 12.9901C54.9315 13.1279 54.9229 13.2656 54.9052 13.4034H44.2545C44.3249 14.3161 44.5358 15.1344 44.8872 15.8578C45.2387 16.564 45.7485 17.1237 46.4162 17.537C47.1017 17.9332 47.9541 18.1312 48.9735 18.1312C49.448 18.1312 49.9314 18.0796 50.4234 17.9762C50.9049 17.8604 51.3606 17.659 51.7679 17.382C52.1723 17.0894 52.4711 16.7103 52.6643 16.2453H54.6152C54.3692 17.0546 53.9561 17.7179 53.3761 18.2346C52.7961 18.7513 52.1107 19.1301 51.3198 19.3713C50.5347 19.6116 49.7169 19.7335 48.8944 19.733ZM44.3072 11.8275H53.0597C53.0422 10.9837 52.8577 10.2344 52.5061 9.57989C52.1547 8.90818 51.6714 8.38301 51.0561 8.00396C50.4411 7.60776 49.6853 7.40976 48.7889 7.40976C47.8575 7.40976 47.0667 7.61644 46.4162 8.0298C45.766 8.44316 45.2651 8.98569 44.9135 9.65739C44.5797 10.3291 44.3776 11.0525 44.3072 11.8275ZM55.9648 19.578V5.96301H57.7575L57.8366 8.39149C58.1882 7.73694 58.6189 7.22892 59.1284 6.86723C59.6471 6.50945 60.2277 6.24685 60.842 6.09218C61.4686 5.92079 62.116 5.83387 62.7665 5.83383H63.3465V7.5131H62.7402C61.5802 7.5131 60.6311 7.75429 59.8929 8.23648C59.1725 8.71886 58.6452 9.37321 58.3112 10.1999C57.9948 11.0266 57.8366 11.948 57.8366 12.9643V19.578H55.9648ZM69.3678 19.733C67.9092 19.733 66.6876 19.4403 65.7033 18.8546C64.7193 18.2517 63.9811 17.425 63.4888 16.3745C63.0143 15.3239 62.777 14.1268 62.777 12.7834C62.777 11.4228 63.0232 10.2258 63.5152 9.19237C64.0072 8.14182 64.7456 7.3151 65.7297 6.71222C66.714 6.10934 67.9356 5.808 69.3942 5.808C70.853 5.808 72.0657 6.10934 73.0323 6.71222C74.0166 7.3149 74.7459 8.14182 75.2204 9.19237C75.7127 10.2258 75.9586 11.4226 75.9586 12.7834C75.9586 14.1268 75.7127 15.3239 75.2204 16.3745C74.7284 17.425 73.9902 18.2517 73.0059 18.8546C72.0394 19.4401 70.8267 19.733 69.3678 19.733ZM69.3678 18.1312C70.4576 18.1312 71.3539 17.8987 72.0569 17.4337C72.76 16.9513 73.2784 16.3054 73.6123 15.4961C73.9464 14.6867 74.1132 13.7825 74.1132 12.7834C74.1132 11.7843 73.9464 10.8801 73.6123 10.0708C73.2784 9.26139 72.76 8.61552 72.0569 8.13314C71.3539 7.65075 70.4576 7.40976 69.3678 7.40976C68.2783 7.40976 67.3817 7.65095 66.6788 8.13314C65.9758 8.61552 65.4574 9.26139 65.1234 10.0708C64.807 10.8801 64.6488 11.7843 64.6488 12.7834C64.6488 13.7825 64.807 14.6867 65.1234 15.4961C65.4574 16.3054 65.9758 16.9513 66.6788 17.4337C67.3817 17.8987 68.2783 18.1312 69.3678 18.1312ZM11.371 1.79532L11.373 3.11512L22.2649 4.83475L20.486 7.68769L23.2393 8.12244L12.414 21.9183L11.6857 21.803L11.6696 21.8006L11.4029 21.7584L0.0321301 19.9635L0 0L11.371 1.79532ZM11.3969 17.9841L18.6665 6.24578L11.3761 5.09472L11.3969 17.9841Z" fill="black"/>
</svg>
